<?xml version="1.0" encoding="UTF-8" standalone="no"?>
<!DOCTYPE svg PUBLIC "-//W3C//DTD SVG 1.1//EN"
 "http://www.w3.org/Graphics/SVG/1.1/DTD/svg11.dtd">
<!-- Generated by graphviz version 12.1.2 (20240928.0832)
 -->
<!-- Pages: 1 -->
<svg width="619pt" height="684pt"
 viewBox="0.00 0.00 619.00 683.60" xmlns="http://www.w3.org/2000/svg" xmlns:xlink="http://www.w3.org/1999/xlink">
<g id="graph0" class="graph" transform="scale(1 1) rotate(0) translate(4 679.6)">
<polygon fill="white" stroke="none" points="-4,4 -4,-679.6 615,-679.6 615,4 -4,4"/>
<g id="clust1" class="cluster">
<title>cluster1</title>
<polygon fill="ivory" stroke="black" points="8,-16 8,-667.6 603,-667.6 603,-16 8,-16"/>
<text text-anchor="middle" x="305.5" y="-651" font-family="Times,serif" font-size="14.00">FileNode</text>
</g>
<g id="clust2" class="cluster">
<title>cluster3</title>
<polygon fill="mintcream" stroke="black" points="16,-24 16,-553.8 595,-553.8 595,-24 16,-24"/>
<text text-anchor="middle" x="305.5" y="-537.2" font-family="Times,serif" font-size="14.00">DocumentNode</text>
</g>
<g id="clust3" class="cluster">
<title>cluster5</title>
<polygon fill="honeydew" stroke="black" points="24,-32 24,-440 587,-440 587,-32 24,-32"/>
<text text-anchor="middle" x="305.5" y="-423.4" font-family="Times,serif" font-size="14.00">MappingNode</text>
</g>
<g id="clust4" class="cluster">
<title>cluster9</title>
<polygon fill="seashell" stroke="black" points="32,-40 32,-310.6 579,-310.6 579,-40 32,-40"/>
<text text-anchor="middle" x="305.5" y="-294" font-family="Times,serif" font-size="14.00">MappingValueNode</text>
</g>
<g id="clust5" class="cluster">
<title>cluster14</title>
<polygon fill="lavenderblush" stroke="black" points="40,-56 40,-148.4 210,-148.4 210,-56 40,-56"/>
<text text-anchor="middle" x="125" y="-131.8" font-family="Times,serif" font-size="14.00">StringNode</text>
</g>
<g id="clust6" class="cluster">
<title>cluster17</title>
<polygon fill="lavenderblush" stroke="black" points="218,-48 218,-181.2 571,-181.2 571,-48 218,-48"/>
<text text-anchor="middle" x="394.5" y="-164.6" font-family="Times,serif" font-size="14.00">StringNode</text>
</g>
<g id="clust7" class="cluster">
<title>cluster20</title>
<polygon fill="whitesmoke" stroke="black" points="226,-56 226,-148.4 401,-148.4 401,-56 226,-56"/>
<text text-anchor="middle" x="313.5" y="-131.8" font-family="Times,serif" font-size="14.00">CommentGroupNode (Line)</text>
</g>
<!-- 2 -->
<g id="node1" class="node">
<title>2</title>
<ellipse fill="white" stroke="black" cx="59" cy="-616.8" rx="40" ry="18"/>
<text text-anchor="middle" x="59" y="-612.6" font-family="Times,serif" font-size="14.00">docs[0]</text>
</g>
<!-- 4 -->
<g id="node2" class="node">
<title>4</title>
<ellipse fill="white" stroke="black" cx="59" cy="-503" rx="30.35" ry="18"/>
<text text-anchor="middle" x="59" y="-498.8" font-family="Times,serif" font-size="14.00">body</text>
</g>
<!-- 2&#45;&gt;4 -->
<g id="edge5" class="edge">
<title>2&#45;&gt;4</title>
<path fill="none" stroke="black" d="M59,-598.33C59,-589.14 59,-577.25 59,-565.04"/>
<polygon fill="black" stroke="black" points="62.5,-565.31 59,-555.31 55.5,-565.31 62.5,-565.31"/>
</g>
<!-- 6 -->
<g id="node3" class="node">
<title>6</title>
<polygon fill="white" stroke="black" points="32,-356.1 32,-406.7 86,-406.7 86,-356.1 32,-356.1"/>
<text text-anchor="middle" x="58.55" y="-390.1" font-family="Times,serif" font-size="14.00">path</text>
<polyline fill="none" stroke="black" points="32,-381.9 85.1,-381.9"/>
<text text-anchor="middle" x="58.55" y="-364.8" font-family="Times,serif" font-size="14.00">$</text>
</g>
<!-- 4&#45;&gt;6 -->
<g id="edge4" class="edge">
<title>4&#45;&gt;6</title>
<path fill="none" stroke="black" d="M59,-484.61C59,-475.52 59,-463.73 59,-451.4"/>
<polygon fill="black" stroke="black" points="62.5,-451.51 59,-441.51 55.5,-451.51 62.5,-451.51"/>
</g>
<!-- 7 -->
<g id="node4" class="node">
<title>7</title>
<polygon fill="white" stroke="black" points="104.12,-356.1 104.12,-406.7 185.88,-406.7 185.88,-356.1 104.12,-356.1"/>
<text text-anchor="middle" x="121.84" y="-390.1" font-family="Times,serif" font-size="14.00">pos</text>
<polyline fill="none" stroke="black" points="104.12,-381.9 139.57,-381.9"/>
<text text-anchor="middle" x="121.84" y="-364.8" font-family="Times,serif" font-size="14.00">2:2</text>
<polyline fill="none" stroke="black" points="139.57,-356.1 139.57,-406.7"/>
<text text-anchor="middle" x="162.72" y="-390.1" font-family="Times,serif" font-size="14.00">value</text>
<polyline fill="none" stroke="black" points="139.57,-381.9 185.88,-381.9"/>
<text text-anchor="middle" x="162.72" y="-364.8" font-family="Times,serif" font-size="14.00">:</text>
</g>
<!-- 8 -->
<g id="node5" class="node">
<title>8</title>
<ellipse fill="white" stroke="black" cx="251" cy="-381.4" rx="46.97" ry="18"/>
<text text-anchor="middle" x="251" y="-377.2" font-family="Times,serif" font-size="14.00">values[0]</text>
</g>
<!-- 10 -->
<g id="node6" class="node">
<title>10</title>
<polygon fill="white" stroke="black" points="100,-226.7 100,-277.3 154,-277.3 154,-226.7 100,-226.7"/>
<text text-anchor="middle" x="126.55" y="-260.7" font-family="Times,serif" font-size="14.00">path</text>
<polyline fill="none" stroke="black" points="100,-252.5 153.1,-252.5"/>
<text text-anchor="middle" x="126.55" y="-235.4" font-family="Times,serif" font-size="14.00">$</text>
</g>
<!-- 8&#45;&gt;10 -->
<g id="edge3" class="edge">
<title>8&#45;&gt;10</title>
<path fill="none" stroke="black" d="M227.88,-365.37C211.36,-353.98 188.9,-337.18 170.57,-318.64"/>
<polygon fill="black" stroke="black" points="173.44,-316.58 164.04,-311.7 168.35,-321.38 173.44,-316.58"/>
</g>
<!-- 11 -->
<g id="node7" class="node">
<title>11</title>
<polygon fill="white" stroke="black" points="172.12,-226.7 172.12,-277.3 253.88,-277.3 253.88,-226.7 172.12,-226.7"/>
<text text-anchor="middle" x="189.84" y="-260.7" font-family="Times,serif" font-size="14.00">pos</text>
<polyline fill="none" stroke="black" points="172.12,-252.5 207.57,-252.5"/>
<text text-anchor="middle" x="189.84" y="-235.4" font-family="Times,serif" font-size="14.00">2:2</text>
<polyline fill="none" stroke="black" points="207.57,-226.7 207.57,-277.3"/>
<text text-anchor="middle" x="230.72" y="-260.7" font-family="Times,serif" font-size="14.00">value</text>
<polyline fill="none" stroke="black" points="207.57,-252.5 253.88,-252.5"/>
<text text-anchor="middle" x="230.72" y="-235.4" font-family="Times,serif" font-size="14.00">:</text>
</g>
<!-- 12 -->
<g id="node8" class="node">
<title>12</title>
<ellipse fill="white" stroke="black" cx="299" cy="-252" rx="27" ry="18"/>
<text text-anchor="middle" x="299" y="-247.8" font-family="Times,serif" font-size="14.00">key</text>
</g>
<!-- 15 -->
<g id="node10" class="node">
<title>15</title>
<polygon fill="white" stroke="black" points="48,-64.5 48,-115.1 102,-115.1 102,-64.5 48,-64.5"/>
<text text-anchor="middle" x="74.55" y="-98.5" font-family="Times,serif" font-size="14.00">path</text>
<polyline fill="none" stroke="black" points="48,-90.3 101.1,-90.3"/>
<text text-anchor="middle" x="74.55" y="-73.2" font-family="Times,serif" font-size="14.00">$.a</text>
</g>
<!-- 12&#45;&gt;15 -->
<g id="edge1" class="edge">
<title>12&#45;&gt;15</title>
<path fill="none" stroke="black" d="M282.1,-237.73C276.28,-233.61 269.57,-229.34 263,-226.2 199.42,-195.84 163.04,-228.7 111,-181.2 104.03,-174.84 98.39,-166.95 93.83,-158.51"/>
<polygon fill="black" stroke="black" points="97.11,-157.25 89.61,-149.76 90.8,-160.29 97.11,-157.25"/>
</g>
<!-- 13 -->
<g id="node9" class="node">
<title>13</title>
<ellipse fill="white" stroke="black" cx="436" cy="-252" rx="31.95" ry="18"/>
<text text-anchor="middle" x="436" y="-247.8" font-family="Times,serif" font-size="14.00">value</text>
</g>
<!-- 18 -->
<g id="node12" class="node">
<title>18</title>
<polygon fill="white" stroke="black" points="409,-64.5 409,-115.1 463,-115.1 463,-64.5 409,-64.5"/>
<text text-anchor="middle" x="435.55" y="-98.5" font-family="Times,serif" font-size="14.00">path</text>
<polyline fill="none" stroke="black" points="409,-90.3 462.1,-90.3"/>
<text text-anchor="middle" x="435.55" y="-73.2" font-family="Times,serif" font-size="14.00">$.a</text>
</g>
<!-- 13&#45;&gt;18 -->
<g id="edge2" class="edge">
<title>13&#45;&gt;18</title>
<path fill="none" stroke="black" d="M436,-233.55C436,-222.86 436,-208.21 436,-192.34"/>
<polygon fill="black" stroke="black" points="439.5,-192.71 436,-182.71 432.5,-192.71 439.5,-192.71"/>
</g>
<!-- 16 -->
<g id="node11" class="node">
<title>16</title>
<polygon fill="white" stroke="black" points="120.12,-64.5 120.12,-115.1 201.88,-115.1 201.88,-64.5 120.12,-64.5"/>
<text text-anchor="middle" x="137.84" y="-98.5" font-family="Times,serif" font-size="14.00">pos</text>
<polyline fill="none" stroke="black" points="120.12,-90.3 155.57,-90.3"/>
<text text-anchor="middle" x="137.84" y="-73.2" font-family="Times,serif" font-size="14.00">2:1</text>
<polyline fill="none" stroke="black" points="155.57,-64.5 155.57,-115.1"/>
<text text-anchor="middle" x="178.72" y="-98.5" font-family="Times,serif" font-size="14.00">value</text>
<polyline fill="none" stroke="black" points="155.57,-90.3 201.88,-90.3"/>
<text text-anchor="middle" x="178.72" y="-73.2" font-family="Times,serif" font-size="14.00">a</text>
</g>
<!-- 19 -->
<g id="node13" class="node">
<title>19</title>
<polygon fill="white" stroke="black" points="481.12,-64.5 481.12,-115.1 562.88,-115.1 562.88,-64.5 481.12,-64.5"/>
<text text-anchor="middle" x="498.84" y="-98.5" font-family="Times,serif" font-size="14.00">pos</text>
<polyline fill="none" stroke="black" points="481.12,-90.3 516.57,-90.3"/>
<text text-anchor="middle" x="498.84" y="-73.2" font-family="Times,serif" font-size="14.00">2:4</text>
<polyline fill="none" stroke="black" points="516.57,-64.5 516.57,-115.1"/>
<text text-anchor="middle" x="539.72" y="-98.5" font-family="Times,serif" font-size="14.00">value</text>
<polyline fill="none" stroke="black" points="516.57,-90.3 562.88,-90.3"/>
<text text-anchor="middle" x="539.72" y="-73.2" font-family="Times,serif" font-size="14.00">b</text>
</g>
<!-- 21 -->
<g id="node14" class="node">
<title>21</title>
<polygon fill="white" stroke="black" points="260.23,-64.5 260.23,-115.1 363.77,-115.1 363.77,-64.5 260.23,-64.5"/>
<text text-anchor="middle" x="277.95" y="-98.5" font-family="Times,serif" font-size="14.00">pos</text>
<polyline fill="none" stroke="black" points="260.23,-90.3 295.68,-90.3"/>
<text text-anchor="middle" x="277.95" y="-73.2" font-family="Times,serif" font-size="14.00">2:6</text>
<polyline fill="none" stroke="black" points="295.68,-64.5 295.68,-115.1"/>
<text text-anchor="middle" x="329.72" y="-98.5" font-family="Times,serif" font-size="14.00">value</text>
<polyline fill="none" stroke="black" points="295.68,-90.3 363.77,-90.3"/>
<text text-anchor="middle" x="329.72" y="-73.2" font-family="Times,serif" font-size="14.00">comment</text>
</g>
</g>
</svg>
